# xmcd
#
# Track frame offsets:
#	150
#	25842
#	46325
#	63421
#	84343
#	98077
#	113129
#	133085
#	151963
#	170669
# Disc length: 2522 seconds
# Revision: 15
# Processed by: cddbd v1.5.2PL0 Copyright (c) Steve Scherf et al.
#
# Submitted via: libkcddb 0.10
#
DISCID=7a09d80a
DTITLE=John Lee Hooker - The Healer
DYEAR=1989
DGENRE=Blues
TTITLE0=The Healer (with Carlos Santana and The Santana Band)
TTITLE1=I'm In The Mood (with Bonnie Raitt)
TTITLE2=Baby Lee (with Robert Cray)
TTITLE3=Cuttin' Out (with Canned Heat)
TTITLE4=Think Twice Before You Go (with Los Lobos)
TTITLE5=Sally Mae (with George Thorogood)
TTITLE6=That's Alright (with Charlie Musselwhite)
TTITLE7=Rockin Chair
TTITLE8=My Dream
TTITLE9=No Substitute
EXTD=YEAR: 1989
EXTT0=
EXTT1=
EXTT2=
EXTT3=
EXTT4=
EXTT5=
EXTT6=
EXTT7=
EXTT8=
EXTT9=
PLAYORDER=
